<?xml version="1.0" encoding="UTF-8" standalone="no"?>
<svg
   xmlns:dc="http://purl.org/dc/elements/1.1/"
   xmlns:cc="http://creativecommons.org/ns#"
   xmlns:rdf="http://www.w3.org/1999/02/22-rdf-syntax-ns#"
   xmlns:svg="http://www.w3.org/2000/svg"
   xmlns="http://www.w3.org/2000/svg"
   viewBox="0 0 112.26666 136.26666"
   height="136.26666"
   width="136.26666"
   xml:space="preserve"
   id="svg2"
   version="1.1"><metadata
     id="metadata8"><rdf:RDF><cc:Work
         rdf:about=""><dc:format>image/svg+xml</dc:format><dc:type
           rdf:resource="http://purl.org/dc/dcmitype/StillImage" /></cc:Work></rdf:RDF></metadata><defs
     id="defs6"><clipPath
       id="clipPath18"
       clipPathUnits="userSpaceOnUse"><path
         id="path16"
         d="M 5,15 H 76.576 V 86.2 H 5 Z" /></clipPath></defs><g
     transform="matrix(1.3333333,0,0,-1.3333333,0,136.26667)"
     id="g10"><g
       id="g12"><g
         clip-path="url(#clipPath18)"
         id="g14"><g
           transform="translate(60.2744,75.8111)"
           id="g20"><path
             id="path22"
             style="fill:rgba(255, 255, 255, 0.87);fill-opacity:1;fill-rule:nonzero;stroke:none"
             d="m 0,0 h -10.37 l -5.184,-8.98 c -0.499,-0.863 -1.401,-1.344 -2.33,-1.344 -0.455,0 -0.919,0.116 -1.34,0.36 -1.286,0.742 -1.727,2.385 -0.985,3.671 l 5.961,10.323 c 0.48,0.831 1.367,1.344 2.327,1.344 H 0 C 1.483,5.374 2.687,4.17 2.687,2.687 2.687,1.204 1.483,0 0,0 m -10.922,-49.691 c 0.741,-1.286 0.302,-2.928 -0.983,-3.67 -0.424,-0.245 -0.885,-0.361 -1.34,-0.361 -0.929,0 -1.831,0.481 -2.33,1.344 l -5.661,9.804 c -0.48,0.831 -0.48,1.854 0,2.687 l 5.661,9.803 c 0.742,1.285 2.386,1.726 3.67,0.982 1.285,-0.741 1.724,-2.384 0.983,-3.669 l -4.884,-8.46 z m -16.84,33.03 h -11.196 l -4.823,-8.354 5.597,-9.696 c 0.744,-1.286 0.303,-2.928 -0.983,-3.67 -0.423,-0.245 -0.885,-0.36 -1.34,-0.36 -0.929,0 -1.831,0.481 -2.33,1.343 l -6.374,11.039 c -0.479,0.833 -0.479,1.856 0,2.687 l 6.374,11.041 c 0.48,0.831 1.366,1.343 2.327,1.343 h 12.748 c 1.485,0 2.687,-1.203 2.687,-2.686 0,-1.484 -1.202,-2.687 -2.687,-2.687 M 7.175,-25.015 15.842,-10 c 0.482,0.831 0.482,1.856 0,2.687 L 6.399,9.046 c -0.48,0.83 -1.367,1.343 -2.327,1.343 h -18.89 c -0.96,0 -1.845,-0.513 -2.326,-1.343 L -25.813,-5.97 h -17.33 c -0.96,0 -1.847,-0.512 -2.326,-1.343 l -9.444,-16.359 c -0.481,-0.831 -0.481,-1.854 0,-2.687 l 9.444,-16.357 c 0.479,-0.831 1.366,-1.343 2.326,-1.343 h 17.33 l 8.669,-15.015 c 0.481,-0.831 1.366,-1.343 2.326,-1.343 h 18.89 c 0.96,0 1.847,0.512 2.327,1.343 l 9.443,16.358 c 0.482,0.831 0.482,1.856 0,2.687 z" /></g></g></g>
</g></svg>